/* XPM */
static char * ginac_32x32_xpm[] = {
"32 32 13 1",
" 	c None",
"+	c #000000",
"@	c #565656",
"#	c #6E6F6E",
"$	c #9A8585",
"%	c #B59898",
"*	c #B4A8A8",
"=	c #C55353",
"-	c #C4B4B4",
">	c #C01D1D",
",	c #BD7272",
"'	c #BCBABA",
")	c #BE0202",
"                                ",
"                                ",
"                                ",
"                                ",
"        ''                -%=>% ",
"       $++@        -,=>>)>))))  ",
"      '+  +*      ,))))))))))=  ",
"      '$''+#     ,))))=>>)))%   ",
"      *++++#    -)))=    %)))-  ",
"     *+' #+%    ,))>      ,))=  ",
"     #+  #+     =))%      -))>  ",
"     #+''+*     ,)),      -))>  ",
"      $++$      ,))=      ,))=  ",
"       $*       -)))%     >))%  ",
" *************   ,)))=%%=>)),   ",
" #+++++++++++#    ,>))))))>%    ",
" *************     %)))))))=-   ",
"    ''             ,>,%%,>)))-  ",
"   $++@            ,%     =))>  ",
"  '+  +*                   >))- ",
"  '$''+# '' '              =)), ",
"  *++++# +@+#+             ,)), ",
" *+' #+% '$+'#   -=        =))% ",
" #+  #+   @+    %))=      %)))- ",
" #+''+* +#+#'#  -)))>*- -=))),  ",
"  $++$  *+*$+    %))))))))))=   ",
"   $*             -=))))))>,    ",
"                    -,===%      ",
"                                ",
"                                ",
"                                ",
"                                "};
