/* XPM */
static char * ginac3_xpm[] = {
"32 32 16 1",
" 	c None",
".	c #BE0202",
"+	c #C27171",
"@	c #C24E4E",
"#	c #BE3A3A",
"$	c #BE2E2E",
"%	c #BE2424",
"&	c #BE1A1A",
"*	c #BE1313",
"=	c #C27676",
"-	c #C25959",
";	c #BE0E0E",
">	c #C28585",
",	c #C26464",
"'	c #C04545",
")	c #BE0A0A",
"                                ",
"                                ",
"                                ",
"                      -@        ",
"             >+,@@'$;..-        ",
"           @...........>        ",
"          ;..........@          ",
"         *...#= >-;..%          ",
"        -...=      *..#         ",
"        %..#       >...         ",
"        *..+        ...         ",
"        &..+        ...         ",
"        $..'       >...         ",
"        =...       *..@         ",
"         %...,   =*..&          ",
"          $.........@           ",
"           >.......&=           ",
"            .;$##*...$          ",
"           >>     >;..%         ",
"                    ...+        ",
"                    '..$        ",
"                    +..)        ",
"                    +...        ",
"          #         '..$        ",
"        -..@        ...-        ",
"        -...$     ,)..*         ",
"         @....;**.....          ",
"          +.........%           ",
"            ,$;..%@             ",
"                                ",
"                                ",
"                                "};
